<svg width="32" height="32" viewBox="0 0 32 32" fill="none" xmlns="http://www.w3.org/2000/svg">
<path d="M23.931 5.29801C20.721 7.71601 17.268 12.618 16 15.249C14.733 12.618 11.279 7.71601 8.069 5.29801C5.753 3.55401 2 2.20401 2 6.49901C2 7.35601 2.49 13.705 2.778 14.736C3.777 18.319 7.419 19.233 10.659 18.68C4.996 19.647 3.556 22.849 6.667 26.052C12.575 32.135 15.159 24.526 15.821 22.576C15.944 22.216 16 22.049 16 22.197C16 22.049 16.057 22.216 16.179 22.576C16.841 24.525 19.424 32.134 25.333 26.052C28.444 22.849 27.004 19.647 21.341 18.68C24.581 19.233 28.223 18.319 29.222 14.736C29.51 13.705 30 7.35601 30 6.49901C30 2.20401 26.247 3.55401 23.931 5.29801Z" fill="#FF78B9"/>
</svg>
