<svg width="32" height="32" viewBox="0 0 32 32" fill="none" xmlns="http://www.w3.org/2000/svg">
<path d="M26.4129 6.53599C24.4419 5.63399 22.3609 4.99299 20.2239 4.63199C19.9319 5.15499 19.6669 5.69299 19.4309 6.24399C17.1539 5.90099 14.8389 5.90099 12.5619 6.24399C12.3259 5.69299 12.0619 5.15499 11.7689 4.63199C9.62993 4.99699 7.54793 5.63799 5.57493 6.54099C1.65793 12.336 0.595931 17.987 1.12693 23.558C3.42093 25.253 5.98793 26.542 8.71793 27.369C9.33293 26.542 9.87593 25.665 10.3439 24.747C9.45593 24.415 8.59993 24.006 7.78393 23.525C7.99893 23.369 8.20893 23.209 8.41193 23.053C13.2179 25.313 18.7819 25.313 23.5889 23.053C23.7939 23.221 24.0039 23.381 24.2169 23.525C23.3999 24.008 22.5409 24.417 21.6519 24.75C22.1189 25.668 22.6629 26.544 23.2779 27.369C26.0099 26.545 28.5789 25.257 30.8739 23.561C31.4969 17.1 29.8089 11.501 26.4129 6.53599ZM11.0169 20.132C9.53793 20.132 8.31493 18.789 8.31493 17.138C8.31493 15.487 9.49493 14.132 11.0119 14.132C12.5289 14.132 13.7419 15.486 13.7159 17.138C13.6899 18.79 12.5239 20.132 11.0169 20.132ZM20.9839 20.132C19.5019 20.132 18.2849 18.789 18.2849 17.138C18.2849 15.487 19.4649 14.132 20.9839 14.132C22.5029 14.132 23.7069 15.486 23.6809 17.138C23.6549 18.79 22.4919 20.132 20.9839 20.132Z" fill="#FF78B9"/>
</svg>
