<svg width="32" height="32" viewBox="0 0 32 32" fill="none" xmlns="http://www.w3.org/2000/svg">
<path d="M6.566 29C8.53545 29 10.132 27.4035 10.132 25.434C10.132 23.4646 8.53545 21.868 6.566 21.868C4.59655 21.868 3 23.4646 3 25.434C3 27.4035 4.59655 29 6.566 29Z" fill="#FF78B9"/>
<path d="M20.234 29H15.183C15.183 22.272 9.729 16.817 3 16.817V11.766C12.518 11.766 20.234 19.482 20.234 29Z" fill="#FF78B9"/>
<path d="M23.8 29C23.8 17.512 14.488 8.2 3 8.2V3C17.359 3 29 14.641 29 29H23.8Z" fill="#FF78B9"/>
</svg>
