<svg width="32" height="32" viewBox="0 0 32 32" fill="none" xmlns="http://www.w3.org/2000/svg">
<path d="M24.562 7.61301C23.054 6.63001 21.965 5.05601 21.626 3.22201C21.553 2.82601 21.512 2.41801 21.512 2.00101H16.698L16.69 21.293C16.609 23.453 14.831 25.187 12.651 25.187C11.974 25.187 11.336 25.018 10.774 24.722C9.48602 24.044 8.60502 22.694 8.60502 21.14C8.60502 18.909 10.42 17.093 12.651 17.093C13.068 17.093 13.467 17.162 13.845 17.28V12.366C13.454 12.313 13.057 12.279 12.651 12.279C7.76502 12.279 3.79102 16.254 3.79102 21.139C3.79102 24.137 5.28902 26.789 7.57402 28.393C9.01302 29.403 10.764 29.999 12.652 29.999C17.538 29.999 21.512 26.024 21.512 21.139V11.357C23.4 12.712 25.713 13.511 28.209 13.511V8.69701C26.864 8.69701 25.612 8.29801 24.562 7.61301Z" fill="#FF78B9"/>
</svg>
