<svg width="32" height="32" viewBox="0 0 32 32" fill="none" xmlns="http://www.w3.org/2000/svg">
<path d="M31.331 8.24799C30.963 6.86199 29.879 5.77099 28.502 5.39999C26.006 4.72699 16 4.72699 16 4.72699C16 4.72699 5.993 4.72699 3.498 5.39999C2.121 5.76999 1.037 6.86199 0.669 8.24799C0 10.76 0 16 0 16C0 16 0 21.241 0.669 23.752C1.037 25.138 2.121 26.229 3.498 26.599C5.994 27.272 16 27.272 16 27.272C16 27.272 26.007 27.272 28.502 26.599C29.879 26.229 30.963 25.137 31.331 23.752C32 21.24 32 16 32 16C32 16 32 10.76 31.331 8.24799ZM12.727 20.758V11.242L21.091 16L12.727 20.758Z" fill="#FF78B9"/>
</svg>
